<?xml version="1.0" encoding="UTF-8"?><svg id="Layer_1" xmlns="http://www.w3.org/2000/svg" viewBox="0 0 484.83 160.06"><defs><style>.cls-1,.cls-2{fill:#262626;}.cls-3{fill:#c62026;}.cls-2,.cls-4{opacity:.15;}.cls-5{fill:#ffdb8c;}.cls-6{fill:#f3c86e;}.cls-7{fill:#722fb0;}.cls-8{fill:#fda6b9;}.cls-9{fill:#b0c752;}.cls-10{fill:#22222c;}.cls-11{fill:#f95472;}.cls-12{fill:#ec3826;}</style></defs><polygon class="cls-6" points="142.15 83.53 138.66 75.92 131.1 84.03 124.32 74.64 115.51 87.42 142.15 83.53"/><polygon class="cls-6" points="13.61 84.52 4.84 75.92 .52 83.31 13.61 84.52"/><path class="cls-10" d="M186.34,130.76c5.59-.14,10.01-4.78,9.88-10.37v-.22c.28-5.46-3.92-10.11-9.38-10.39s-10.11,3.92-10.39,9.38c-.02.34-.02.67,0,1.01-.17,5.65,4.25,10.38,9.89,10.59M186.34,106.5c7.46-.13,13.62,5.82,13.75,13.28v.39c.33,7.6-5.57,14.03-13.17,14.36-7.6.33-14.03-5.57-14.36-13.17-.02-.4-.02-.79,0-1.19-.07-7.48,5.93-13.6,13.41-13.67h.36"/><path class="cls-10" d="M218.55,120.66c2.66.18,4.96-1.84,5.14-4.5,0-.21,0-.43,0-.64.24-2.6-1.68-4.9-4.28-5.14-.29-.03-.57-.03-.86,0h-5.42v10.28h5.42ZM209.38,107.04h9.79c4.41-.25,8.18,3.13,8.43,7.53.02.28.02.56,0,.84.23,4.47-3.2,8.27-7.67,8.5-.25.01-.51.01-.76,0h-6.04v9.84h-3.75v-26.73.02Z"/><path class="cls-10" d="M278.69,107.04h3.96l6.14,14.49c.62,1.49,1.34,3.6,1.34,3.6,0,0,.72-2.11,1.34-3.6l6.22-14.49h3.96l2.16,26.81h-3.73l-1.34-16.91v-3.93s-.8,2.57-1.44,3.93l-5.35,12.08h-3.34l-5.53-12.16c-.62-1.44-1.44-4.01-1.44-4.01v4.01l-1.31,16.91h-3.75l2.11-26.73h0Z"/><path class="cls-10" d="M363.88,110.64s-.62,2.57-1.08,3.8l-2.98,8.51h8.12l-2.96-8.51c-.46-1.36-1.03-3.8-1.03-3.8h-.08,0ZM369.02,126.06h-10.1l-2.57,7.71h-3.88l9.59-26.73h3.93l9.61,26.73h-3.91l-2.67-7.71h0Z"/><path class="cls-10" d="M436.49,130.76c5.59-.12,10.02-4.75,9.9-10.34v-.24c0-5.46-4.42-9.9-9.89-9.9s-9.9,4.42-9.9,9.89v.02c-.17,5.65,4.25,10.38,9.89,10.59M436.49,106.52c7.47-.07,13.58,5.92,13.65,13.39v.28c.33,7.6-5.57,14.03-13.17,14.36s-14.03-5.57-14.36-13.17c-.02-.4-.02-.79,0-1.19-.07-7.48,5.93-13.6,13.41-13.68h.47"/><path class="cls-10" d="M459.51,107.04h3.73l11.93,17.42c.98,1.44,2.24,3.88,2.24,3.88,0,0-.28-2.42-.28-3.88v-17.42h3.86v26.73h-3.7l-11.95-17.4c-1-1.49-2.24-3.91-2.24-3.91,0,0,.26,2.39.26,3.91v17.4h-3.75l-.08-26.73h-.02Z"/><path class="cls-10" d="M196.29,26.26c7.13-.29,14.12,2.03,19.66,6.53l-3.83,5.65c-4.37-3.35-9.73-5.16-15.24-5.14-12.7,0-20.35,9.25-20.35,20.82,0,12.54,8.58,21.2,19.92,21.2,5.8-.18,11.29-2.63,15.29-6.84v-7.71h-8.79v-6.71h15.68v27.27h-6.66v-5.76h-.08c-4.43,4.33-10.41,6.7-16.6,6.58-14.55,0-26.57-11.49-26.57-28.01-.36-15.04,11.55-27.52,26.59-27.88h.99"/><path class="cls-10" d="M235.84,27.19h7.58v34.92c0,8.25,5.35,13.08,13.62,13.08s13.78-4.83,13.78-13.24V27.19h7.71v34.92c0,12-8.64,20.05-21.28,20.05s-21.28-8.04-21.28-20.05l-.13-34.93h0Z"/><path class="cls-10" d="M316.9,53.07c4.96.35,9.25-3.39,9.6-8.35.03-.48.03-.97-.02-1.45.22-3.32-1.44-6.48-4.29-8.2-2.33-1.04-4.89-1.47-7.43-1.23h-8.74v19.22h10.88ZM298.5,27.19h16.55c3.41-.23,6.84.19,10.1,1.23,5.85,2.43,9.5,8.31,9.1,14.62.3,6.47-3.63,12.39-9.71,14.62v.15c.61.76,1.15,1.58,1.62,2.44l11.44,21.07h-8.58l-11.41-21.51h-11.57v21.51h-7.71l.18-54.15v.02Z"/><path class="cls-10" d="M377.76,75.09c11.03,0,19.89-9.18,19.89-21.36,0-11.01-8.93-19.94-19.94-19.94s-19.94,8.93-19.94,19.94c0,12.18,8.97,21.46,20,21.46v-.1h0ZM377.76,26.26c15.04-.26,27.45,11.73,27.7,26.77v.8c0,15.33-12.43,27.76-27.76,27.76s-27.76-12.43-27.76-27.76c-.14-15.09,11.97-27.44,27.06-27.58h.75"/><path class="cls-10" d="M442.42,74.65c4.72.4,8.87-3.11,9.27-7.84.04-.44.04-.89,0-1.34.28-4.85-3.42-9-8.27-9.28-.36-.02-.73-.02-1.09,0h-12.08v18.45h12.17ZM441.49,49.93c4.26.15,7.83-3.18,7.98-7.43,0-.26,0-.51-.01-.77.3-4.11-2.78-7.68-6.89-7.98-.4-.03-.81-.03-1.21,0h-11.18v16.17h11.31ZM422.6,27.18h18.89c9.12,0,15.7,5.14,15.7,13.78.18,4.85-2.44,9.38-6.73,11.64v.15c5.58,1.86,9.23,7.23,8.89,13.11,0,10.28-7.89,15.42-17.4,15.42h-19.35V27.19h0Z"/><polygon class="cls-12" points="16.1 50.09 13.16 69.14 6.8 110.43 83.83 137.12 102.58 143.62 81.13 70.33 16.1 50.09"/><polygon class="cls-3" points="104.59 26.31 85.29 68.73 106.94 142.72 135.3 114.34 104.59 26.31"/><polygon class="cls-10" points="241.96 110.22 232.78 110.22 232.78 107.04 254.81 107.04 254.81 110.3 245.64 110.3 245.64 133.77 241.96 133.77 241.96 110.22"/><rect class="cls-10" x="262.52" y="107.04" width="3.75" height="26.73"/><rect class="cls-10" x="314.05" y="107.04" width="3.75" height="26.73"/><path class="cls-10" d="M326.77,131.25l12.85-18.61c.57-.91,1.21-1.77,1.93-2.57-.66.1-1.33.14-2,.13h-12.16v-3.16h18.84v2.57l-12.85,18.63c-.58.86-1.22,1.68-1.93,2.44h15.01v3.08h-19.69v-2.52h0Z"/><polygon class="cls-10" points="389.12 110.22 379.92 110.22 379.92 107.04 402.05 107.04 402.05 110.3 392.87 110.3 392.87 133.77 389.12 133.77 389.12 110.22"/><rect class="cls-10" x="409.71" y="107.04" width="3.75" height="26.73"/><rect class="cls-10" x="477.25" y="27.19" width="7.58" height="54.15"/><path class="cls-10" d="M477.13,124.46v-17.42h3.86v26.73"/><polygon class="cls-3" points="101.3 22.84 52.14 15.98 28.88 39.85 18.87 46.31 81.72 65.86 101.3 22.84"/><g class="cls-4"><polygon class="cls-1" points="62.27 24.13 47.09 28.86 32.48 33.95 24.22 42.88 29.77 44.63 35.49 35.59 46.24 38.39 52.6 30.13 63.04 33.55 69.74 25.64 79.55 29.69 87.64 22.48 97.06 27.04 101.3 22.88 86.98 20.45 62.27 24.13"/></g><path class="cls-5" d="M53.3,3.02c-7.54,1.97-13.75,6.96-18.6,13.98-.33.47-.65.96-.96,1.46-4.32,6.73-7.49,15.15-9.51,24.42l5.41.88,5.6-8.81,10.66,2.75,6.34-8.31,10.45,3.45,6.89-7.91,10.23,4.04,7.45-7.45,9.88,4.78,4.16-3.43c-7.1-6.88-14.67-12.47-22.23-16.11-.56-.27-1.13-.53-1.69-.78-8.26-3.66-16.49-4.94-24.08-2.96Z"/><path class="cls-9" d="M54.06,10.83c-6.59,1.76-13.05,3.82-19.36,6.18-.33.47-.65.96-.96,1.46,6.71-2.57,13.6-4.78,20.63-6.67,8.13-2.16,16.38-3.84,24.7-5.03-.56-.27-1.13-.53-1.69-.78-7.45,1.12-14.84,2.63-22.14,4.54l-1.18.31Z"/><polygon class="cls-8" points="59.83 23.11 62.57 18.3 57.44 15.54 54.7 20.35 59.83 23.11"/><polygon class="cls-8" points="71.93 20.55 74.66 15.74 69.53 12.98 66.8 17.79 71.93 20.55"/><polygon class="cls-8" points="84.07 19.16 86.81 14.35 81.68 11.59 78.94 16.4 84.07 19.16"/><polygon class="cls-8" points="48.11 26.76 50.84 21.95 45.72 19.19 42.98 24 48.11 26.76"/><polygon class="cls-8" points="36.69 31.51 39.42 26.7 34.29 23.95 31.56 28.75 36.69 31.51"/><polygon class="cls-2" points="71.18 91.69 50.49 73.95 29.81 91.69 12.04 76.44 8.89 96.88 89.09 97.51 84.13 80.58 71.18 91.69"/><polygon class="cls-2" points="123.99 81.91 112.57 91.69 91.87 73.95 87.83 77.41 93.72 97.55 129.54 97.84 123.99 81.91"/><path class="cls-5" d="M112.57,93.67l-4.64-3.97-16.06-13.77-18.09,15.5-2.61,2.24-2.59-2.24-18.09-15.5-16.02,13.75-4.66,3.99-6.07-5.21-14.61-12.53-8.61,7.39c0,.18.02.33.04.51.04.33.06.64.09.98.54,5.79,1.41,11.18,2.54,16.19.09.38.17.75.26,1.13.15.69.3,1.35.49,2,.66,2.64,1.41,5.15,2.24,7.56.11.35.24.69.36,1.02.24.71.51,1.4.79,2.06.32.87.66,1.73,1.03,2.55.88,2.13,1.84,4.15,2.88,6.1.13.29.28.55.43.82,1.43,2.62,2.95,5.03,4.63,7.3.68.95,1.39,1.91,2.14,2.79.08.11.15.2.23.29.53.69,1.09,1.33,1.65,1.95,6.94,7.72,15.32,13.06,24.67,16.34.66.24,1.33.47,2.01.69,7.6,2.39,15.79,3.53,24.35,3.53,1.65,0,3.29-.04,4.93-.13.86-.04,1.71-.11,2.58-.18.51-.04,1.02-.09,1.52-.13,1.07-.11,2.14-.24,3.21-.4,8.29-1.13,16.09-3.53,23.14-7.36.56-.31,1.13-.62,1.69-.95,5.1-2.99,9.78-6.76,13.93-11.4.58-.62,1.13-1.26,1.67-1.95.08-.11.17-.2.24-.31.75-.89,1.47-1.82,2.16-2.79,1.24-1.71,2.41-3.5,3.52-5.41.19-.31.38-.64.56-.98,1.37-2.44,2.65-5.03,3.82-7.81.36-.82.7-1.66,1.02-2.53.13-.33.26-.69.39-1.02h.02c.09-.29.21-.6.32-.89,1.34-3.7,2.48-7.65,3.42-11.89.66-2.91,1.22-5.94,1.67-9.11.11-.71.21-1.44.3-2.17.23-1.6.39-3.22.56-4.88.04-.33.06-.67.09-1,0-.09.02-.2.02-.29l-8.87-7.61-14.68,12.6-6.02,5.15Z"/><path class="cls-8" d="M107.93,89.7c-11.3,1.09-22.69,1.66-34.14,1.73l-2.61,2.24-2.59-2.24c-11.45-.07-22.83-.67-34.11-1.75l-4.66,3.99-6.07-5.21c-7.76-.98-15.46-2.2-23.09-3.66.54,5.79,1.41,11.18,2.54,16.19,22.37,3.97,45.22,5.99,68.23,5.99h.43c22.83-.02,45.48-2.04,67.65-5.99.66-2.91,1.22-5.94,1.67-9.11.11-.71.21-1.44.3-2.17.23-1.6.39-3.22.56-4.88-7.76,1.49-15.59,2.71-23.45,3.7l-6.02,5.15-4.64-3.97Z"/><path class="cls-9" d="M16.29,131.52c.68.95,1.39,1.91,2.14,2.79,17.35,4.32,35.06,6.5,52.91,6.5h.36c17.71-.02,35.31-2.2,52.57-6.52.75-.89,1.47-1.82,2.16-2.79-17.95,4.7-36.27,7.07-54.73,7.1h-.36c-18.58,0-37-2.37-55.05-7.07Z"/><path class="cls-7" d="M7.32,114.75c.32.87.66,1.73,1.03,2.55,20.57,5.5,41.68,8.27,62.99,8.27h.36c21.19-.04,42.17-2.82,62.63-8.27.36-.82.7-1.66,1.02-2.53-20.78,5.68-42.12,8.54-63.64,8.58h-.36c-21.66,0-43.15-2.88-64.02-8.6Z"/><path class="cls-11" d="M10.93,95.11c0,2.39,1.64,4.32,3.67,4.32s3.67-1.94,3.67-4.32-1.64-4.32-3.67-4.32-3.67,1.94-3.67,4.32Z"/><path class="cls-11" d="M31.95,97.28c0,2.39,1.64,4.32,3.67,4.32s3.67-1.94,3.67-4.32-1.64-4.32-3.67-4.32-3.67,1.94-3.67,4.32Z"/><path class="cls-11" d="M99.35,97.8c0,2.39,1.64,4.32,3.67,4.32s3.67-1.94,3.67-4.32-1.64-4.32-3.67-4.32-3.67,1.94-3.67,4.32Z"/><path class="cls-11" d="M123.35,95.14c0,2.39,1.64,4.32,3.67,4.32s3.67-1.94,3.67-4.32-1.64-4.32-3.67-4.32-3.67,1.94-3.67,4.32Z"/><path class="cls-11" d="M54.2,98.74c0,2.39,1.64,4.32,3.67,4.32s3.67-1.94,3.67-4.32-1.64-4.32-3.67-4.32-3.67,1.94-3.67,4.32Z"/><path class="cls-11" d="M76.35,98.74c0,2.39,1.64,4.32,3.67,4.32s3.67-1.94,3.67-4.32-1.64-4.32-3.67-4.32-3.67,1.94-3.67,4.32Z"/></svg>