<?xml version="1.0" encoding="UTF-8"?><svg id="Layer_1" xmlns="http://www.w3.org/2000/svg" viewBox="0 0 498.61 149.28"><defs><style>.cls-1{fill:#c62026;}.cls-2{fill:none;stroke:#c62026;stroke-miterlimit:10;stroke-width:2px;}.cls-3{fill:#fff;}.cls-4{fill:#ec3826;}</style></defs><path class="cls-3" d="M200.12,130.03c5.59-.14,10.01-4.78,9.88-10.37v-.22c.28-5.46-3.92-10.11-9.38-10.39-5.46-.28-10.11,3.92-10.39,9.38-.02.34-.02.67,0,1.01-.17,5.65,4.25,10.38,9.89,10.59M200.12,105.77c7.46-.13,13.62,5.82,13.75,13.28v.39c.33,7.6-5.57,14.03-13.17,14.36-7.6.33-14.03-5.57-14.36-13.17-.02-.4-.02-.79,0-1.19-.07-7.48,5.93-13.6,13.41-13.67h.36"/><path class="cls-3" d="M232.33,119.93c2.66.18,4.96-1.84,5.14-4.5,0-.21,0-.43,0-.64.24-2.6-1.68-4.9-4.28-5.14-.29-.03-.57-.03-.86,0h-5.42v10.28h5.42ZM223.16,106.31h9.79c4.41-.25,8.18,3.13,8.43,7.53.02.28.02.56,0,.84.23,4.47-3.2,8.27-7.67,8.5-.25.01-.51.01-.76,0h-6.04v9.84h-3.75v-26.73.02Z"/><path class="cls-3" d="M292.47,106.31h3.96l6.14,14.49c.62,1.49,1.34,3.6,1.34,3.6,0,0,.72-2.11,1.34-3.6l6.22-14.49h3.96l2.16,26.81h-3.73l-1.34-16.91v-3.93s-.8,2.57-1.44,3.93l-5.35,12.08h-3.34l-5.53-12.16c-.62-1.44-1.44-4.01-1.44-4.01v4.01l-1.31,16.91h-3.75l2.11-26.73h0Z"/><path class="cls-3" d="M377.66,109.91s-.62,2.57-1.08,3.8l-2.98,8.51h8.12l-2.96-8.51c-.46-1.36-1.03-3.8-1.03-3.8h-.08,0ZM382.8,125.33h-10.1l-2.57,7.71h-3.88l9.59-26.73h3.93l9.61,26.73h-3.91l-2.67-7.71h0Z"/><path class="cls-3" d="M450.27,130.03c5.59-.12,10.02-4.75,9.9-10.34v-.24c0-5.46-4.42-9.9-9.89-9.9s-9.9,4.42-9.9,9.89v.02c-.17,5.65,4.25,10.38,9.89,10.59M450.27,105.79c7.47-.07,13.58,5.92,13.65,13.39v.28c.33,7.6-5.57,14.03-13.17,14.36-7.6.33-14.03-5.57-14.36-13.17-.02-.4-.02-.79,0-1.19-.07-7.48,5.93-13.6,13.41-13.68h.47"/><path class="cls-3" d="M473.29,106.31h3.73l11.93,17.42c.98,1.44,2.24,3.88,2.24,3.88,0,0-.28-2.42-.28-3.88v-17.42h3.86v26.73h-3.7l-11.95-17.4c-1-1.49-2.24-3.91-2.24-3.91,0,0,.26,2.39.26,3.91v17.4h-3.75l-.08-26.73h-.02Z"/><path class="cls-3" d="M210.07,25.53c7.13-.29,14.12,2.03,19.66,6.53l-3.83,5.65c-4.37-3.35-9.73-5.16-15.24-5.14-12.7,0-20.35,9.25-20.35,20.82,0,12.54,8.58,21.2,19.92,21.2,5.8-.18,11.29-2.63,15.29-6.84v-7.71h-8.79v-6.71h15.68v27.27h-6.66v-5.76h-.08c-4.43,4.33-10.41,6.7-16.6,6.58-14.55,0-26.57-11.49-26.57-28.01-.36-15.04,11.55-27.52,26.59-27.88h.99"/><path class="cls-3" d="M249.62,26.46h7.58v34.92c0,8.25,5.35,13.08,13.62,13.08s13.78-4.83,13.78-13.24V26.46h7.71v34.92c0,12-8.64,20.05-21.28,20.05s-21.28-8.04-21.28-20.05l-.13-34.93h0Z"/><path class="cls-3" d="M330.68,52.34c4.96.35,9.25-3.39,9.6-8.35.03-.48.03-.97-.02-1.45.22-3.32-1.44-6.48-4.29-8.2-2.33-1.04-4.89-1.47-7.43-1.23h-8.74v19.22h10.88ZM312.28,26.46h16.55c3.41-.23,6.84.19,10.1,1.23,5.85,2.43,9.5,8.31,9.1,14.62.3,6.47-3.63,12.39-9.71,14.62v.15c.61.76,1.15,1.58,1.62,2.44l11.44,21.07h-8.58l-11.41-21.51h-11.57v21.51h-7.71l.18-54.15v.02Z"/><path class="cls-3" d="M391.54,74.36c11.03,0,19.89-9.18,19.89-21.36,0-11.01-8.93-19.94-19.94-19.94s-19.94,8.93-19.94,19.94c0,12.18,8.97,21.46,20,21.46v-.1h0ZM391.54,25.53c15.04-.26,27.45,11.73,27.7,26.77v.8c0,15.33-12.43,27.76-27.76,27.76s-27.76-12.43-27.76-27.76c-.14-15.09,11.97-27.44,27.06-27.58h.75"/><path class="cls-3" d="M456.2,73.92c4.72.4,8.87-3.11,9.27-7.84.04-.44.04-.89,0-1.34.28-4.85-3.42-9-8.27-9.28-.36-.02-.73-.02-1.09,0h-12.08v18.45h12.17ZM455.27,49.2c4.26.15,7.83-3.18,7.98-7.43,0-.26,0-.51-.01-.77.3-4.11-2.78-7.68-6.89-7.98-.4-.03-.81-.03-1.21,0h-11.18v16.17h11.31ZM436.38,26.45h18.89c9.12,0,15.7,5.14,15.7,13.78.18,4.85-2.44,9.38-6.73,11.64v.15c5.58,1.86,9.23,7.23,8.89,13.11,0,10.28-7.89,15.42-17.4,15.42h-19.35V26.46h0Z"/><polygon class="cls-3" points="255.74 109.49 246.56 109.49 246.56 106.31 268.59 106.31 268.59 109.57 259.42 109.57 259.42 133.04 255.74 133.04 255.74 109.49"/><rect class="cls-3" x="276.3" y="106.31" width="3.75" height="26.73"/><rect class="cls-3" x="327.83" y="106.31" width="3.75" height="26.73"/><path class="cls-3" d="M340.55,130.52l12.85-18.61c.57-.91,1.21-1.77,1.93-2.57-.66.1-1.33.14-2,.13h-12.16v-3.16h18.84v2.57l-12.85,18.63c-.58.86-1.22,1.68-1.93,2.44h15.01v3.08h-19.69v-2.52h0Z"/><polygon class="cls-3" points="402.9 109.49 393.7 109.49 393.7 106.31 415.83 106.31 415.83 109.57 406.65 109.57 406.65 133.04 402.9 133.04 402.9 109.49"/><rect class="cls-3" x="423.49" y="106.31" width="3.75" height="26.73"/><rect class="cls-3" x="491.03" y="26.46" width="7.58" height="54.15"/><path class="cls-3" d="M490.91,123.73v-17.42h3.86v26.73"/><path class="cls-4" d="M76.9,59.5c-8.2-13.93-17.93-22.46-26.8-28.99-10.91-.8-20.36.16-30.07,2.46-6.69,12.76-10.64,25.91-10.65,45.14,27.46,32.59,61.03,51.98,97.71,62.51,16.29-16.98,33.57-41.43,43.35-68.23.1-16.53-4.35-32.34-10.58-44.87-13.65-11.36-26.72-16.46-38.28-19.4-11.33,12.36-21.18,27.58-24.68,51.37Z"/><path class="cls-2" d="M10.96,35.45c17.18-5.27,32.01-7,53.2-3.09"/><path class="cls-2" d="M75.92,68.54c2.46-33.82,16.7-51.9,31.95-66.9"/><path class="cls-2" d="M9.75,89.05c-2.03-30.68,4.3-47.01,15.59-65.35"/><path class="cls-2" d="M116.54,143.13c-43.49-10.58-83.07-32.77-113.95-73.5"/><path class="cls-2" d="M81.62,68.54c-11.87-25.68-28.73-36.13-41.19-44.84"/><path class="cls-2" d="M148.72,89.05c5.61-27.35-3.39-55.03-14.92-71.9"/><path class="cls-2" d="M100.36,147.27c20.4-19.06,44.41-51.67,53.9-86.93"/><path class="cls-2" d="M147.71,34.72c-19.96-20.05-39.1-25.43-54.58-28.48"/><circle class="cls-1" cx="139.31" cy="27.6" r="4.45"/></svg>