<?xml version="1.0" encoding="UTF-8"?><svg id="Layer_1" xmlns="http://www.w3.org/2000/svg" viewBox="0 0 478.03 127.64"><defs><style>.cls-1{fill:#c62026;}.cls-2{fill:#dab060;}.cls-3{fill:#c27626;}.cls-4{fill:#cf7723;}.cls-5{fill:#22222c;}.cls-6{fill:#dba130;}.cls-7{fill:#ec3826;}</style></defs><path class="cls-5" d="M179.54,114.78c5.59-.14,10.01-4.78,9.88-10.37v-.22c.28-5.46-3.92-10.11-9.38-10.39s-10.11,3.92-10.39,9.38c-.02.34-.02.67,0,1.01-.17,5.65,4.25,10.38,9.89,10.59M179.54,90.52c7.46-.13,13.62,5.82,13.75,13.28v.39c.33,7.6-5.57,14.03-13.17,14.36-7.6.33-14.03-5.57-14.36-13.17-.02-.4-.02-.79,0-1.19-.07-7.48,5.93-13.6,13.41-13.67h.36"/><path class="cls-5" d="M211.75,104.68c2.66.18,4.96-1.84,5.14-4.5,0-.21,0-.43,0-.64.24-2.6-1.68-4.9-4.28-5.14-.29-.03-.57-.03-.86,0h-5.42v10.28h5.42ZM202.58,91.06h9.79c4.41-.25,8.18,3.13,8.43,7.53.02.28.02.56,0,.84.23,4.47-3.2,8.27-7.67,8.5-.25.01-.51.01-.76,0h-6.04v9.84h-3.75v-26.73.02Z"/><path class="cls-5" d="M271.89,91.06h3.96l6.14,14.49c.62,1.49,1.34,3.6,1.34,3.6,0,0,.72-2.11,1.34-3.6l6.22-14.49h3.96l2.16,26.81h-3.73l-1.34-16.91v-3.93s-.8,2.57-1.44,3.93l-5.35,12.08h-3.34l-5.53-12.16c-.62-1.44-1.44-4.01-1.44-4.01v4.01l-1.31,16.91h-3.75l2.11-26.73h0Z"/><path class="cls-5" d="M357.08,94.66s-.62,2.57-1.08,3.8l-2.98,8.51h8.12l-2.96-8.51c-.46-1.36-1.03-3.8-1.03-3.8h-.08,0ZM362.22,110.08h-10.1l-2.57,7.71h-3.88l9.59-26.73h3.93l9.61,26.73h-3.91l-2.67-7.71h0Z"/><path class="cls-5" d="M429.69,114.78c5.59-.12,10.02-4.75,9.9-10.34v-.24c0-5.46-4.42-9.9-9.89-9.9s-9.9,4.42-9.9,9.89v.02c-.17,5.65,4.25,10.38,9.89,10.59M429.69,90.54c7.47-.07,13.58,5.92,13.65,13.39v.28c.33,7.6-5.57,14.03-13.17,14.36s-14.03-5.57-14.36-13.17c-.02-.4-.02-.79,0-1.19-.07-7.48,5.93-13.6,13.41-13.68h.47"/><path class="cls-5" d="M452.71,91.06h3.73l11.93,17.42c.98,1.44,2.24,3.88,2.24,3.88,0,0-.28-2.42-.28-3.88v-17.42h3.86v26.73h-3.7l-11.95-17.4c-1-1.49-2.24-3.91-2.24-3.91,0,0,.26,2.39.26,3.91v17.4h-3.75l-.08-26.73h-.02Z"/><path class="cls-5" d="M189.49,10.28c7.13-.29,14.12,2.03,19.66,6.53l-3.83,5.65c-4.37-3.35-9.73-5.16-15.24-5.14-12.7,0-20.35,9.25-20.35,20.82,0,12.54,8.58,21.2,19.92,21.2,5.8-.18,11.29-2.63,15.29-6.84v-7.71h-8.79v-6.71h15.68v27.27h-6.66v-5.76h-.08c-4.43,4.33-10.41,6.7-16.6,6.58-14.55,0-26.57-11.49-26.57-28.01-.36-15.04,11.55-27.52,26.59-27.88h.99"/><path class="cls-5" d="M229.04,11.21h7.58v34.92c0,8.25,5.35,13.08,13.62,13.08s13.78-4.83,13.78-13.24V11.21h7.71v34.92c0,12-8.64,20.05-21.28,20.05s-21.28-8.04-21.28-20.05l-.13-34.93h0Z"/><path class="cls-5" d="M310.1,37.09c4.96.35,9.25-3.39,9.6-8.35.03-.48.03-.97-.02-1.45.22-3.32-1.44-6.48-4.29-8.2-2.33-1.04-4.89-1.47-7.43-1.23h-8.74v19.22h10.88ZM291.7,11.21h16.55c3.41-.23,6.84.19,10.1,1.23,5.85,2.43,9.5,8.31,9.1,14.62.3,6.47-3.63,12.39-9.71,14.62v.15c.61.76,1.15,1.58,1.62,2.44l11.44,21.07h-8.58l-11.41-21.51h-11.57v21.51h-7.71l.18-54.15v.02Z"/><path class="cls-5" d="M370.96,59.11c11.03,0,19.89-9.18,19.89-21.36,0-11.01-8.93-19.94-19.94-19.94s-19.94,8.93-19.94,19.94c0,12.18,8.97,21.46,20,21.46v-.1h0ZM370.96,10.28c15.04-.26,27.45,11.73,27.7,26.77v.8c0,15.33-12.43,27.76-27.76,27.76s-27.76-12.43-27.76-27.76c-.14-15.09,11.97-27.44,27.06-27.58h.75"/><path class="cls-5" d="M435.62,58.67c4.72.4,8.87-3.11,9.27-7.84.04-.44.04-.89,0-1.34.28-4.85-3.42-9-8.27-9.28-.36-.02-.73-.02-1.09,0h-12.08v18.45h12.17ZM434.69,33.95c4.26.15,7.83-3.18,7.98-7.43,0-.26,0-.51-.01-.77.3-4.11-2.78-7.68-6.89-7.98-.4-.03-.81-.03-1.21,0h-11.18v16.17h11.31ZM415.8,11.2h18.89c9.12,0,15.7,5.14,15.7,13.78.18,4.85-2.44,9.38-6.73,11.64v.15c5.58,1.86,9.23,7.23,8.89,13.11,0,10.28-7.89,15.42-17.4,15.42h-19.35V11.21h0Z"/><polygon class="cls-1" points="94.5 6.86 59.08 0 12.07 30.33 74.92 49.88 94.5 6.86"/><polygon class="cls-7" points="9.3 34.11 6.36 53.16 0 94.45 77.03 121.14 95.78 127.64 74.33 54.35 9.3 34.11"/><polygon class="cls-1" points="97.79 10.33 78.49 52.75 100.14 126.74 128.5 98.36 97.79 10.33"/><polygon class="cls-2" points="43.88 44.87 47.81 111.01 40.04 108.32 34.74 42.03 43.88 44.87"/><polygon class="cls-2" points="45.07 40.6 80.4 4.13 72.7 2.64 35.27 37.55 45.07 40.6"/><polygon class="cls-2" points="85.69 36.93 112.51 114.36 117.62 109.25 90.44 26.49 85.69 36.93"/><polygon class="cls-2" points="82.34 33.57 35.88 14.97 42.58 10.65 86.51 24.41 82.34 33.57"/><path class="cls-6" d="M62.25,25.56c8.52,1.89,17.53,1.58,25.9-.91,2.29-.68,4.65-1.61,6.11-3.5,4.26-5.53-1.54-16.68-9.77-17.71-7.3-.91-19.1,8.48-23.78,13.04l2.93,6.16c5.72-3.95,12.7-6.05,19.65-5.91-5.65,3.88-12.28,6.33-19.1,7.06l-1.93,1.76Z"/><path class="cls-3" d="M95.44,18.69c-5.6-2.26-12.16-1.96-12.16-1.96-5.65,3.88-12.28,6.33-19.1,7.06l-1.93,1.76c8.52,1.89,17.53,1.58,25.9-.91,3.47-1.03,6.39-2.47,7.28-5.96Z"/><path class="cls-6" d="M55.75,16.49c-4.69-4.55-16.48-13.95-23.78-13.04-8.24,1.03-14.04,12.17-9.77,17.71,1.46,1.89,3.82,2.82,6.11,3.5,8.37,2.49,17.38,2.8,25.9.91l-1.93-1.76c-6.82-.73-13.45-3.18-19.1-7.06,6.95-.14,13.92,1.96,19.65,5.91l2.93-6.16Z"/><path class="cls-3" d="M54.2,25.56l-1.93-1.76c-6.82-.73-13.45-3.18-19.1-7.06,0,0-6.56-.3-12.16,1.96.89,3.49,3.82,4.93,7.28,5.96,8.37,2.49,17.38,2.8,25.9.91Z"/><path class="cls-6" d="M25.24,44.62c6.79-1.04,13.26-4.31,17.96-9.33,1.86-1.99,3.34-3.84,5.11-5.92,1.91-2.24,5.69-3.07,5.69-3.07l1.48-4.41c-2.48-1.05-5.34-.37-7.83.65-4.7,1.93-8.81,5.02-13.12,7.72-4.31,2.7-9.03,5.07-14.1,5.31,2.63,1.95,6.08,2.73,9.29,2.12-.87,2.64-2.43,5.05-4.48,6.93Z"/><path class="cls-6" d="M98.52,27.72c-3.55,2.21-7.98,2.69-12.1,1.99-4.12-.69-7.98-2.48-11.62-4.53-3.95-2.23-8.12-4.9-12.63-4.35l1.51,5.16s5.69,1.65,9.31,4.97c3.16,2.89,6.37,5.96,10.4,7.4,4.75,1.7,10.94,1.23,14.51-2.34-2.09.2-4.75-1.08-6.55-2.16,3.16-.8,5.9-3.14,7.17-6.15Z"/><path class="cls-4" d="M65.92,20.76c0-3.69-2.66-6.69-5.94-6.69h-3.22c-3.28,0-5.94,2.99-5.94,6.69h0c0,3.69,2.66,6.69,5.94,6.69h3.22c3.28,0,5.94-2.99,5.94-6.69h0Z"/><polygon class="cls-5" points="235.16 94.24 225.98 94.24 225.98 91.06 248.01 91.06 248.01 94.32 238.84 94.32 238.84 117.79 235.16 117.79 235.16 94.24"/><rect class="cls-5" x="255.72" y="91.06" width="3.75" height="26.73"/><rect class="cls-5" x="307.25" y="91.06" width="3.75" height="26.73"/><path class="cls-5" d="M319.97,115.27l12.85-18.61c.57-.91,1.21-1.77,1.93-2.57-.66.1-1.33.14-2,.13h-12.16v-3.16h18.84v2.57l-12.85,18.63c-.58.86-1.22,1.68-1.93,2.44h15.01v3.08h-19.69v-2.52h0Z"/><polygon class="cls-5" points="382.32 94.24 373.12 94.24 373.12 91.06 395.25 91.06 395.25 94.32 386.07 94.32 386.07 117.79 382.32 117.79 382.32 94.24"/><rect class="cls-5" x="402.91" y="91.06" width="3.75" height="26.73"/><rect class="cls-5" x="470.45" y="11.21" width="7.58" height="54.15"/><path class="cls-5" d="M470.33,108.48v-17.42h3.86v26.73"/></svg>