<svg width="731" height="314" viewBox="0 0 731 314" fill="none" xmlns="http://www.w3.org/2000/svg">
<path d="M69.459 192.13L80.3589 123.089L135.487 87.9481L176.287 96.0339L211.483 195.861L178.778 229.137L69.459 192.13Z" fill="url(#paint0_radial_2403_14135)"/>
<path d="M285.304 195.623C260.319 195.623 245.744 176.394 245.744 149.94C245.744 123.607 260.931 104.379 287.631 104.379C311.024 104.379 323.884 117.728 326.333 134.508H306.86C305.022 126.669 299.756 119.933 287.263 119.933C271.097 119.933 265.095 133.528 265.095 149.94C265.095 166.474 270.362 180.069 287.631 180.069C299.266 180.069 308.084 172.475 308.207 161.697H288.243V147.49H327.681V193.786H314.331L311.636 182.273H311.391C306.492 190.602 298.286 195.623 285.304 195.623Z" fill="#0A0A0A"/>
<path d="M378.71 168.509V131.521H395.489V194.106H378.71V185.533H378.465C375.158 190.922 368.912 195.943 357.889 195.943C346.009 195.943 337.436 188.472 337.436 174.143V131.521H354.215V168.999C354.215 178.062 357.644 182.226 365.115 182.226C373.566 182.226 378.71 177.449 378.71 168.509Z" fill="#0A0A0A"/>
<path d="M479.597 196.066C459.389 196.066 447.019 182.593 447.019 162.875C447.019 143.279 459.389 129.439 479.842 129.439C500.051 129.439 512.421 142.911 512.421 162.63C512.421 182.349 500.051 196.066 479.597 196.066ZM479.72 183.206C490.008 183.206 495.274 175.245 495.274 162.752C495.274 150.26 490.008 142.421 479.72 142.421C469.432 142.421 464.165 150.26 464.165 162.752C464.165 175.245 469.432 183.206 479.72 183.206Z" fill="#0A0A0A"/>
<path d="M555.645 129.893C571.934 129.893 583.202 142.508 583.202 163.084C583.202 183.66 571.934 196.275 555.645 196.275C546.214 196.275 539.845 191.621 537.028 187.702H536.783V194.438H520.004V106.868H536.783V138.467H537.028C539.845 134.792 546.214 129.893 555.645 129.893ZM551.48 183.415C560.789 183.415 565.81 175.332 565.81 163.084C565.81 150.837 560.789 142.876 551.48 142.876C542.417 142.876 537.028 150.224 537.028 163.084C537.028 176.067 542.417 183.415 551.48 183.415Z" fill="#0A0A0A"/>
<path d="M608.408 123.299H591.016V106.868H608.408V123.299ZM608.04 194.702H591.261V133.085H608.04V194.702Z" fill="#0A0A0A"/>
<path d="M421.27 130.757H443.284L443.383 146.421H421.711L421.612 193.788H404.965L404.965 146.886L421.27 130.757Z" fill="#0A0A0A"/>
<path d="M640.681 121.297C639.008 122.95 636.946 123.777 634.496 123.777C632.046 123.777 629.984 122.95 628.311 121.297C626.637 119.645 625.8 117.572 625.8 115.081C625.8 112.59 626.637 110.518 628.311 108.865C629.984 107.212 632.046 106.385 634.496 106.385C636.946 106.385 639.008 107.212 640.681 108.865C642.355 110.518 643.192 112.59 643.192 115.081C643.192 117.572 642.355 119.645 640.681 121.297ZM634.496 122.447C636.558 122.447 638.256 121.753 639.59 120.363C640.924 118.974 641.591 117.213 641.591 115.081C641.591 112.973 640.924 111.224 639.59 109.835C638.256 108.446 636.558 107.751 634.496 107.751C632.458 107.751 630.761 108.446 629.402 109.835C628.068 111.224 627.401 112.973 627.401 115.081C627.401 117.189 628.068 118.95 629.402 120.363C630.761 121.753 632.458 122.447 634.496 122.447ZM630.785 119.609V110.41H635.296C636.242 110.41 637.031 110.649 637.661 111.129C638.316 111.608 638.644 112.266 638.644 113.105C638.644 114.207 638.11 114.937 637.043 115.297V115.369C637.771 115.584 638.231 116.135 638.425 117.022C638.474 117.309 638.51 117.668 638.535 118.099C638.559 118.507 638.595 118.818 638.644 119.034C638.692 119.249 638.765 119.381 638.862 119.429V119.609H636.388C636.291 119.561 636.157 118.854 635.988 117.489C635.915 116.674 635.43 116.267 634.532 116.267H633.295V119.609H630.785ZM633.295 112.386V114.47H634.86C635.733 114.47 636.17 114.123 636.17 113.428C636.17 112.734 635.733 112.386 634.86 112.386H633.295Z" fill="#0A0A0A"/>
<defs>
<radialGradient id="paint0_radial_2403_14135" cx="0" cy="0" r="1" gradientUnits="userSpaceOnUse" gradientTransform="translate(65.8339 61.1714) rotate(47.5638) scale(245.353 170.806)">
<stop offset="0.0384616" stop-color="#CAEBEC"/>
<stop offset="0.298077" stop-color="#10ECD1"/>
<stop offset="0.677885" stop-color="#2158A4"/>
<stop offset="0.975962" stop-color="#1F063D"/>
</radialGradient>
</defs>
</svg>
